<svg width="106" height="26" viewBox="0 0 106 26" fill="none" xmlns="http://www.w3.org/2000/svg">
<path d="M9.51855 9.0874L4.29785 25H0.0922852L7.22461 5.80469H9.90088L9.51855 9.0874ZM13.856 25L8.62207 9.0874L8.2002 5.80469H10.9028L18.0747 25H13.856ZM13.6187 17.8545V20.9526H3.48047V17.8545H13.6187ZM26.8022 5.80469V25H22.8604V5.80469H26.8022ZM32.7085 5.80469V8.90283H17.0464V5.80469H32.7085ZM31.8252 18.0127V17.7358C31.8252 16.6899 31.9746 15.7275 32.2734 14.8486C32.5723 13.9609 33.0073 13.1919 33.5786 12.5415C34.1499 11.8911 34.853 11.3857 35.688 11.0254C36.5229 10.6562 37.481 10.4717 38.562 10.4717C39.6431 10.4717 40.6055 10.6562 41.4492 11.0254C42.293 11.3857 43.0005 11.8911 43.5718 12.5415C44.1519 13.1919 44.5913 13.9609 44.8901 14.8486C45.189 15.7275 45.3384 16.6899 45.3384 17.7358V18.0127C45.3384 19.0498 45.189 20.0122 44.8901 20.8999C44.5913 21.7788 44.1519 22.5479 43.5718 23.207C43.0005 23.8574 42.2974 24.3628 41.4624 24.7231C40.6274 25.0835 39.6694 25.2637 38.5884 25.2637C37.5073 25.2637 36.5449 25.0835 35.7012 24.7231C34.8662 24.3628 34.1587 23.8574 33.5786 23.207C33.0073 22.5479 32.5723 21.7788 32.2734 20.8999C31.9746 20.0122 31.8252 19.0498 31.8252 18.0127ZM35.6221 17.7358V18.0127C35.6221 18.6104 35.6748 19.1685 35.7803 19.687C35.8857 20.2056 36.0527 20.6626 36.2812 21.0581C36.5186 21.4448 36.8262 21.748 37.2041 21.9678C37.582 22.1875 38.0435 22.2974 38.5884 22.2974C39.1157 22.2974 39.5684 22.1875 39.9463 21.9678C40.3242 21.748 40.6274 21.4448 40.856 21.0581C41.0845 20.6626 41.2515 20.2056 41.3569 19.687C41.4712 19.1685 41.5283 18.6104 41.5283 18.0127V17.7358C41.5283 17.1558 41.4712 16.6108 41.3569 16.1011C41.2515 15.5825 41.0801 15.1255 40.8428 14.73C40.6143 14.3257 40.311 14.0093 39.9331 13.7808C39.5552 13.5522 39.0981 13.438 38.562 13.438C38.0259 13.438 37.5688 13.5522 37.1909 13.7808C36.8218 14.0093 36.5186 14.3257 36.2812 14.73C36.0527 15.1255 35.8857 15.5825 35.7803 16.1011C35.6748 16.6108 35.6221 17.1558 35.6221 17.7358ZM47.0654 18.0127V17.7358C47.0654 16.6899 47.2148 15.7275 47.5137 14.8486C47.8125 13.9609 48.2476 13.1919 48.8188 12.5415C49.3901 11.8911 50.0933 11.3857 50.9282 11.0254C51.7632 10.6562 52.7212 10.4717 53.8022 10.4717C54.8833 10.4717 55.8457 10.6562 56.6895 11.0254C57.5332 11.3857 58.2407 11.8911 58.812 12.5415C59.3921 13.1919 59.8315 13.9609 60.1304 14.8486C60.4292 15.7275 60.5786 16.6899 60.5786 17.7358V18.0127C60.5786 19.0498 60.4292 20.0122 60.1304 20.8999C59.8315 21.7788 59.3921 22.5479 58.812 23.207C58.2407 23.8574 57.5376 24.3628 56.7026 24.7231C55.8677 25.0835 54.9097 25.2637 53.8286 25.2637C52.7476 25.2637 51.7852 25.0835 50.9414 24.7231C50.1064 24.3628 49.3989 23.8574 48.8188 23.207C48.2476 22.5479 47.8125 21.7788 47.5137 20.8999C47.2148 20.0122 47.0654 19.0498 47.0654 18.0127ZM50.8623 17.7358V18.0127C50.8623 18.6104 50.915 19.1685 51.0205 19.687C51.126 20.2056 51.293 20.6626 51.5215 21.0581C51.7588 21.4448 52.0664 21.748 52.4443 21.9678C52.8223 22.1875 53.2837 22.2974 53.8286 22.2974C54.356 22.2974 54.8086 22.1875 55.1865 21.9678C55.5645 21.748 55.8677 21.4448 56.0962 21.0581C56.3247 20.6626 56.4917 20.2056 56.5972 19.687C56.7114 19.1685 56.7686 18.6104 56.7686 18.0127V17.7358C56.7686 17.1558 56.7114 16.6108 56.5972 16.1011C56.4917 15.5825 56.3203 15.1255 56.083 14.73C55.8545 14.3257 55.5513 14.0093 55.1733 13.7808C54.7954 13.5522 54.3384 13.438 53.8022 13.438C53.2661 13.438 52.8091 13.5522 52.4312 13.7808C52.062 14.0093 51.7588 14.3257 51.5215 14.73C51.293 15.1255 51.126 15.5825 51.0205 16.1011C50.915 16.6108 50.8623 17.1558 50.8623 17.7358ZM66.9199 4.75V25H63.1099V4.75H66.9199ZM77.77 21.0581C77.77 20.7856 77.6909 20.5396 77.5327 20.3198C77.3745 20.1001 77.0801 19.8979 76.6494 19.7134C76.2275 19.52 75.6167 19.3442 74.8169 19.186C74.0962 19.0278 73.4238 18.8301 72.7998 18.5928C72.1846 18.3467 71.6484 18.0522 71.1914 17.7095C70.7432 17.3667 70.3916 16.9624 70.1367 16.4966C69.8818 16.022 69.7544 15.4814 69.7544 14.875C69.7544 14.2773 69.8818 13.7148 70.1367 13.1875C70.4004 12.6602 70.7739 12.1943 71.2573 11.79C71.7495 11.377 72.3472 11.0562 73.0503 10.8276C73.7622 10.5903 74.562 10.4717 75.4497 10.4717C76.689 10.4717 77.7524 10.6694 78.6401 11.0649C79.5366 11.4604 80.2222 12.0054 80.6968 12.6997C81.1802 13.3853 81.4219 14.1675 81.4219 15.0464H77.625C77.625 14.6772 77.5459 14.3477 77.3877 14.0576C77.2383 13.7588 77.001 13.5259 76.6758 13.3589C76.3594 13.1831 75.9463 13.0952 75.4365 13.0952C75.0146 13.0952 74.6499 13.1699 74.3423 13.3193C74.0347 13.46 73.7974 13.6533 73.6304 13.8994C73.4722 14.1367 73.3931 14.4004 73.3931 14.6904C73.3931 14.9102 73.437 15.1079 73.5249 15.2837C73.6216 15.4507 73.7754 15.6045 73.9863 15.7451C74.1973 15.8857 74.4697 16.0176 74.8037 16.1406C75.1465 16.2549 75.5684 16.3604 76.0693 16.457C77.0977 16.668 78.0161 16.9448 78.8247 17.2876C79.6333 17.6216 80.2749 18.0786 80.7495 18.6587C81.2241 19.23 81.4614 19.9814 81.4614 20.9131C81.4614 21.5459 81.3208 22.126 81.0396 22.6533C80.7583 23.1807 80.354 23.6421 79.8267 24.0376C79.2993 24.4243 78.6665 24.7275 77.9282 24.9473C77.1987 25.1582 76.377 25.2637 75.4629 25.2637C74.1357 25.2637 73.0107 25.0264 72.0879 24.5518C71.1738 24.0771 70.4795 23.4751 70.0049 22.7456C69.5391 22.0073 69.3062 21.2515 69.3062 20.478H72.9053C72.9229 20.9966 73.0547 21.4141 73.3008 21.7305C73.5557 22.0469 73.8765 22.2754 74.2632 22.416C74.6587 22.5566 75.085 22.627 75.542 22.627C76.0342 22.627 76.4429 22.561 76.7681 22.4292C77.0933 22.2886 77.3394 22.104 77.5063 21.8755C77.6821 21.6382 77.77 21.3657 77.77 21.0581Z" fill="#050D55"/>
<circle cx="94.5" cy="19.5" r="5.5" fill="#E7AB10" fill-opacity="0.9"/>
</svg>
